<svg version="1.2" baseProfile="tiny" viewBox="0 0 14.0 12.244" xmlns:xlink="http://www.w3.org/1999/xlink" xmlns="http://www.w3.org/2000/svg">
<path style="fill:#ffffff;" d="M 7,11.350673 C 6.5746669,11.350673 6.2301474,11.004026 6.2301474,10.58082 6.2301474,10.157614 6.5746669,9.8109673 7,9.8109673 7.4253331,9.8109673 7.7698532,10.157614 7.7698532,10.58082 7.7698532,11.004026 7.4253331,11.350673 7,11.350673 M 6.4364338,4.2050772 C 6.4364338,3.8796975 6.7001403,3.615991 7.02552,3.615991 7.3487731,3.615991 7.6146062,3.8796975 7.6146062,4.2050772 V 7.8969684 C 7.6146062,8.2223481 7.3487731,8.4860546 7.02552,8.4860546 6.7001403,8.4860546 6.4364338,8.2223481 6.4364338,7.8969684 Z M 13.44805,11.531439 7.3594063,0.29201282 C 7.1616266,-0.09716709 6.8383734,-0.09716709 6.6405937,0.29201282 L 0.55195043,11.531439 C 0.35417068,11.922746 0.51579714,12.243873 0.91135675,12.243873 H 13.088643 C 13.484203,12.243873 13.645829,11.922746 13.44805,11.531439"/>
</svg>