<svg version="1.2" baseProfile="tiny" viewBox="0 0 240.597 173.617" xmlns:xlink="http://www.w3.org/1999/xlink" xmlns="http://www.w3.org/2000/svg">
<path style="fill:#ffffff;" d="M237.4981,53.9324L237.4981,54.7953L192.4343,54.7953L192.4343,45.7845L190.4157,45.7845L190.4157,5.5887C190.4157,2.9046,188.2311,0.7222,185.5484,0.7222L175.7441,0.7222C173.059,0.7222,170.8768,2.9046,170.8768,5.5887L170.8768,45.7845L166.6928,45.7845L166.6928,39.2947C166.6928,39.2947,166.1539,39.0048,164.8186,39.0048C163.4857,39.0048,162.9443,39.2947,162.9443,39.2947L162.9443,43.0449L142.9002,43.0449L142.9002,39.2947C142.9002,39.2947,142.431,39.0048,141.0259,39.0048C139.6208,39.0048,139.1517,39.2947,139.1517,39.2947L139.1517,45.7845L132.9515,45.7845L132.9515,5.5887C132.9515,2.9046,130.7669,0.7222,128.0842,0.7222L87.7818,0.7222C85.0992,0.7222,82.9145,2.9046,82.9145,5.5887L82.9145,45.7845L80.3931,45.7845L80.3931,54.7953L6.5611,54.7953L6.5611,53.7136L4.0372,53.7136L4.0372,76.7856L0.7218,76.7856L0.7218,134.2511L4.0372,155.9532L6.5611,155.9532L6.5611,154.8716L26.8939,154.8716L26.8939,162.6583L12.4004,162.6583L12.4004,172.8965L139.1517,172.8965L142.9026,172.8965L162.9443,172.8965L166.6952,172.8965L230.6459,172.8965L230.6459,162.6583L217.0931,162.6583L217.0931,154.8716L237.4957,154.8716L237.4957,155.7362L239.8752,155.7362L239.8752,53.9324L237.4981,53.9324M84.861,5.5887C84.861,3.9793,86.1722,2.6685,87.7818,2.6685L128.0842,2.6685C129.6938,2.6685,131.0051,3.9793,131.0051,5.5887L131.0051,20.9087L84.861,20.9087L84.861,5.5887L84.861,5.5887M84.861,22.8567L131.0051,22.8567L131.0051,45.7845L84.861,45.7845L84.861,22.8567L84.861,22.8567M139.1517,162.6583L39.0056,162.6583L39.0056,154.8716L139.1517,154.8716L139.1517,162.6583M162.9443,162.6583L142.9026,162.6583L142.9026,159.9186L162.9443,159.9186L162.9443,162.6583M162.9443,157.106L142.9026,157.106L142.9026,154.8716L162.9443,154.8716L162.9443,157.106M172.8232,5.5887C172.8232,3.9793,174.1345,2.6685,175.7441,2.6685L185.5508,2.6685C187.158,2.6685,188.4693,3.9793,188.4693,5.5887L188.4693,20.9087L172.8232,20.9087L172.8232,5.5887M172.8232,22.8567L188.4693,22.8567L188.4693,45.7845L172.8232,45.7845L172.8232,22.8567M205.0512,162.6583L166.6952,162.6583L166.6952,154.8716L205.0512,154.8716L205.0512,162.6583Z"/>
</svg>