<svg version="1.2" baseProfile="tiny" id="EdgeSVG_l8RhO" x="0px" y="0px" width="240.597px" height="173.617px" viewBox="0 0 240.597 173.617" xmlns:xlink="http://www.w3.org/1999/xlink" xmlns="http://www.w3.org/2000/svg">
  <linearGradient id="SVGID_1_" gradientUnits="userSpaceOnUse" x1="0" y1="86.8086" x2="240.5967" y2="86.8086">
    <stop offset="0" style="stop-color:#000000;stop-opacity:0.5"/>
    <stop offset="1" style="stop-color:#000000;stop-opacity:0.5"/>
  </linearGradient>
  <path fill="url(#SVGID_1_)" d="M11.68,173.617v-11.68h14.493v-6.345H7.282v1.081H3.316v-21.702H0V76.066h3.316V52.994h3.966v1.081&#xD;&#xA;&#x9;&#x9;H79.67v-9.013h2.524V5.52c0-3.044,2.521-5.52,5.619-5.52h40.304c1.491,0,2.888,0.568,3.931,1.602&#xD;&#xA;&#x9;&#x9;c1.049,1.037,1.625,2.427,1.625,3.918v39.543h4.759v-6.239l0.342-0.211c0.151-0.093,0.76-0.397,2.254-0.397&#xD;&#xA;&#x9;&#x9;c1.495,0,2.103,0.305,2.254,0.397l0.342,0.211v3.5h18.602v-3.529l0.381-0.204c0.117-0.063,0.773-0.375,2.215-0.375&#xD;&#xA;&#x9;&#x9;s2.099,0.313,2.215,0.375l0.381,0.204v6.269h2.74V5.52c0-3.044,2.521-5.52,5.619-5.52h9.806c1.491,0,2.888,0.568,3.931,1.602&#xD;&#xA;&#x9;&#x9;c1.048,1.037,1.625,2.427,1.625,3.918v39.543h2.02v9.013h43.621v-0.864h3.819v103.245h-3.819v-0.863h-18.963v6.345h13.555v11.68&#xD;&#xA;&#x9;&#x9;H11.68z M204.332,161.938v-6.345h-36.916v6.345H204.332z M162.225,161.938v-1.299h-18.602v1.299H162.225z M138.432,161.938v-6.345&#xD;&#xA;&#x9;&#x9;H39.727v6.345H138.432z M162.225,156.386v-0.793h-18.602v0.793H162.225z M187.748,45.063V23.576h-14.203v21.486H187.748z&#xD;&#xA;&#x9;&#x9; M130.284,45.063V23.576H85.583v21.486H130.284z M187.748,20.188V5.52c0-1.195-0.952-2.131-2.167-2.131h-9.806&#xD;&#xA;&#x9;&#x9;c-1.23,0-2.23,0.956-2.23,2.131v14.669H187.748z M130.284,20.188V5.52c0-1.195-0.951-2.131-2.167-2.131H87.813&#xD;&#xA;&#x9;&#x9;c-1.23,0-2.23,0.956-2.23,2.131v14.669H130.284z"/>
</svg>