<svg version="1.2" baseProfile="tiny" viewBox="0 0 18.000 14.394" xmlns:xlink="http://www.w3.org/1999/xlink" xmlns="http://www.w3.org/2000/svg">
<path style="fill:#0fafff;" d="M16.2,3.593c-0.491,0-0.988-0.269-1.488-0.659c-0.413-0.323-0.828-0.73-1.241-1.137   c-0.55-0.542-1.096-1.083-1.632-1.428C11.485,0.142,11.137,0,10.795,0c-0.026,0-0.051,0-0.076,0.001   c-0.025,0-0.05,0.002-0.073,0.003c-0.503,0.038-0.883,0.234-1.152,0.562c-0.271,0.327-0.43,0.785-0.492,1.348   C8.937,2.499,8.729,2.891,8.464,3.147C8.199,3.403,7.877,3.523,7.583,3.563c-0.001,0-0.003,0-0.004,0c-0.002,0-0.004,0-0.005,0.001   c-0.058,0.009-0.118,0.016-0.18,0.021C7.332,3.591,7.268,3.593,7.2,3.593c-0.521,0-1.05-0.303-1.58-0.732   C5.236,2.55,4.853,2.173,4.471,1.797c-0.567-0.559-1.132-1.118-1.684-1.46C2.451,0.128,2.12,0,1.795,0C0.934,0,0.484,0.45,0.251,0.9   C0.018,1.35,0,1.8,0,1.8v2.7v2.7v2.7v2.7c0,0,0.004-0.45,0.23-0.9c0.227-0.45,0.675-0.9,1.564-0.9c0.333,0,0.668,0.126,1.004,0.332   c0.56,0.342,1.123,0.903,1.688,1.465c0.386,0.384,0.773,0.768,1.16,1.083c0.519,0.42,1.036,0.714,1.553,0.714   c0.073,0,0.144-0.003,0.211-0.009c0.068-0.006,0.133-0.014,0.194-0.025c0.291-0.043,0.608-0.166,0.868-0.422   c0.261-0.257,0.464-0.646,0.527-1.224c0.063-0.56,0.221-1.018,0.489-1.344c0.269-0.327,0.646-0.524,1.145-0.564   c0.026-0.001,0.052-0.003,0.079-0.003c0.026-0.001,0.054-0.001,0.081-0.001c0.333,0,0.668,0.126,1.004,0.332   c0.56,0.342,1.123,0.903,1.688,1.465c0.506,0.503,1.013,1.006,1.52,1.352c0.398,0.271,0.796,0.444,1.193,0.444   c0.902,0,1.353-0.45,1.577-0.9C18.001,13.043,18,12.594,18,12.594v-2.7v-2.7v-2.7v-2.7c0,0-0.001,0.45-0.227,0.9   C17.548,3.143,17.098,3.593,16.2,3.593z"/>
</svg>