<svg version="1.2" baseProfile="tiny" viewBox="0 0 17.207 18.000" xmlns:xlink="http://www.w3.org/1999/xlink" xmlns="http://www.w3.org/2000/svg">
<path style="fill:#fe6703;" d="M0,16.624h17.207V18H0V16.624z M13.687,8.093   c-1.169-2.232-2.096-3.994,0.062-6.608L11.946,0c-3.144,3.811-1.515,6.911-0.324,9.178c1.095,2.092,1.607,3.255,0.333,4.778   l1.785,1.499C16.086,12.662,14.755,10.13,13.687,8.093z M4.399,8.093C3.228,5.86,2.303,4.099,4.458,1.484L2.66,0   c-3.145,3.811-1.517,6.911-0.328,9.178c1.097,2.092,1.612,3.255,0.333,4.778l1.789,1.499C6.795,12.662,5.467,10.13,4.399,8.093z    M8.922,8.093C7.751,5.86,6.827,4.099,8.984,1.484L7.182,0C4.039,3.811,5.667,6.911,6.855,9.178   c1.097,2.092,1.609,3.255,0.333,4.778l1.787,1.499C11.317,12.662,9.991,10.13,8.922,8.093z"/>
</svg>