<svg version="1.2" baseProfile="tiny" viewBox="0 0 15.835 18.000" xmlns:xlink="http://www.w3.org/1999/xlink" xmlns="http://www.w3.org/2000/svg">
<path style="fill:#00adee;" d="M15.175,12.242l-1.015-0.565l1.262-0.921c0.245-0.179,0.315-0.538,0.148-0.766   c-0.097-0.133-0.255-0.211-0.431-0.211c-0.121,0-0.237,0.036-0.331,0.105l-1.668,1.223l-3.77-2.109l3.755-2.117l1.665,1.19   c0.102,0.085,0.227,0.131,0.354,0.131c0.065,0,0.128-0.012,0.189-0.038c0.175-0.072,0.296-0.241,0.315-0.443   c0.019-0.196-0.065-0.372-0.25-0.496l-1.255-0.916l1.019-0.574c0.521-0.291,0.788-0.811,0.596-1.149   c-0.191-0.343-0.773-0.381-1.291-0.088l-1.001,0.564l-0.043-0.08l-0.19-1.623c-0.028-0.282-0.253-0.505-0.559-0.505   c-0.004,0-0.006,0-0.008,0c-0.14,0.016-0.266,0.088-0.357,0.205c-0.093,0.119-0.138,0.264-0.121,0.409l0.227,2.186L8.626,7.785   V3.404l1.958-0.855c0.253-0.1,0.395-0.381,0.32-0.644c-0.065-0.227-0.275-0.385-0.51-0.385c-0.033,0-0.066,0.003-0.114,0.012   c-0.049,0.008-0.098,0.022-0.153,0.05L9.075,2.051L8.626,2.195V1.084C8.626,0.487,8.308,0,7.917,0S7.207,0.487,7.207,1.084v1.233   L5.763,1.676C5.685,1.662,5.529,1.64,5.372,1.64c-0.155,0-0.222,0.021-0.228,0.021c0,0,0,0,0,0c-0.16,0.116-0.25,0.323-0.224,0.517   c0.027,0.197,0.16,0.369,0.374,0.447l1.914,0.849v4.314L3.456,5.693L3.69,3.44c0.043-0.275-0.121-0.534-0.38-0.599   c-0.04-0.011-0.08-0.015-0.125-0.015c-0.027,0-0.053,0.002-0.075,0.004C2.917,2.855,2.748,2.999,2.673,3.203   c-0.018,0.049-0.028,0.091-0.035,0.16l-0.134,1.14L2.419,5.005l-0.04,0.086L1.354,4.518c-0.52-0.292-1.102-0.25-1.293,0.091   C-0.13,4.95,0.14,5.467,0.66,5.756L1.7,6.339L0.455,7.24C0.279,7.354,0.185,7.535,0.203,7.72c0.02,0.193,0.152,0.369,0.338,0.444   c0.069,0.029,0.147,0.045,0.224,0.045c0.131,0,0.252-0.04,0.365-0.135l1.583-1.168l3.752,2.097l-3.717,2.092L1.068,9.869   c-0.12-0.096-0.249-0.115-0.334-0.115c-0.148,0-0.291,0.059-0.392,0.161c-0.191,0.197-0.2,0.493-0.01,0.716   c0.024,0.027,0.059,0.059,0.128,0.108l0.917,0.691l0.303,0.266l-1.008,0.571c-0.521,0.29-0.788,0.81-0.596,1.148   c0.192,0.343,0.774,0.381,1.293,0.088l1.145-0.644l0.027,0.039l0.169,1.66c0.013,0.209,0.12,0.38,0.288,0.455   c0.067,0.03,0.141,0.046,0.219,0.046c0.125,0,0.247-0.042,0.343-0.115c0.167-0.128,0.254-0.326,0.219-0.536l-0.246-2.122   l3.676-2.071v4.247l-1.946,0.862c-0.181,0.066-0.314,0.236-0.341,0.438c-0.025,0.186,0.059,0.37,0.227,0.491   c0.091,0.063,0.197,0.099,0.305,0.099c0.079,0,0.156-0.018,0.258-0.068l1.497-0.649h0.001v1.28C7.207,17.513,7.527,18,7.917,18   s0.709-0.487,0.709-1.085v-1.231l1.5,0.67c0.07,0.033,0.146,0.049,0.222,0.049c0.218,0,0.41-0.122,0.491-0.308   c0.119-0.27-0.01-0.596-0.28-0.716l-1.933-0.845v-4.322l3.715,2.076l-0.226,2.148c-0.033,0.192,0.042,0.387,0.199,0.51   c0.097,0.072,0.212,0.114,0.33,0.114c0.071,0,0.144-0.016,0.211-0.046c0.179-0.08,0.297-0.254,0.311-0.477l0.111-1.12l0.11-0.484   l0.028-0.045l1.063,0.595c0.521,0.293,1.103,0.25,1.294-0.091C15.965,13.051,15.693,12.534,15.175,12.242z"/>
</svg>