<svg version="1.2" baseProfile="tiny" viewBox="0 0 18 18" xmlns:xlink="http://www.w3.org/1999/xlink" xmlns="http://www.w3.org/2000/svg">
<path style="fill:#ffffff;" d="M 0.44726562 0.001953125 A 0.47016 0.47016 0 0 0 0.13867188 0.80273438 L 8.3359375 9 L 0.13867188 17.197266 A 0.47021 0.47021 0 0 0 0.47070312 18 A 0.46867 0.46867 0 0 0 0.80273438 17.861328 L 9 9.6640625 L 17.197266 17.861328 A 0.46867 0.46867 0 0 0 17.529297 18 A 0.47021 0.47021 0 0 0 17.861328 17.197266 L 9.6640625 9 L 17.861328 0.80273438 A 0.47016 0.47016 0 0 0 17.197266 0.13867188 L 9 8.3359375 L 0.80273438 0.13867188 A 0.47016 0.47016 0 0 0 0.44726562 0.001953125 z"/>
</svg>