<svg version="1.2" baseProfile="tiny" viewBox="0 0 17.933 41.353" xmlns:xlink="http://www.w3.org/1999/xlink" xmlns="http://www.w3.org/2000/svg">
<path style="fill:#ffffff;" d="M15.006,40.8158L15.006,39.483L17.3511,39.483L17.433,39.483L17.433,35.5561L17.3511,35.5561L15.006,35.5561L15.006,32.0171L15.006,29.1932L17.3511,29.1932L17.433,29.1932L17.433,25.2659L17.3511,25.2659L15.006,25.2659L15.006,15.9999L17.336,15.9999L17.418,15.9999L17.418,12.0722L17.336,12.0722L15.006,12.0722L15.006,9.3359L15.006,5.71L17.336,5.71L17.418,5.71L17.418,1.7819L17.336,1.7819L15.006,1.7819L15.006,0.5L14.7409,0.5L8.9799,0.5L8.8949,0.5L8.7481,0.5L8.662,0.5L2.901,0.5L2.637,0.5L2.637,1.7819L0.583,1.7819L0.5,1.7819L0.5,5.71L0.583,5.71L2.637,5.71L2.637,9.3371L2.637,12.0722L0.583,12.0722L0.5,12.0722L0.5,15.9999L0.583,15.9999L2.637,15.9999L2.637,25.2659L0.583,25.2659L0.5,25.2659L0.5,29.1932L0.583,29.1932L2.637,29.1932L2.637,32.0171L2.637,35.5561L0.583,35.5561L0.5,35.5561L0.5,39.483L0.583,39.483L2.637,39.483L2.637,40.853L2.901,40.853L8.662,40.853L8.7481,40.853L8.8949,40.853L8.9799,40.853L15.006,40.853Z"/>
</svg>