<svg version="1.2" baseProfile="tiny" id="EdgeSVG_BA3oI" x="0px" y="0px" width="17.933px" height="41.353px" viewBox="0 0 17.933 41.353" xmlns:xlink="http://www.w3.org/1999/xlink" xmlns="http://www.w3.org/2000/svg">
  <polygon fill="#77787B" points="0,35.056 2.137,35.056 2.137,29.693 0,29.693 0,24.766 2.137,24.766 2.137,16.5 0,16.5 0,11.572 &#xD;&#xA;&#x9;&#x9;2.137,11.572 2.137,6.21 0,6.21 0,1.282 2.137,1.282 2.137,0 15.506,0 15.506,1.282 17.918,1.282 17.918,6.21 15.506,6.21 &#xD;&#xA;&#x9;&#x9;15.506,11.572 17.918,11.572 17.918,16.5 15.506,16.5 15.506,24.766 17.933,24.766 17.933,29.693 15.506,29.693 15.506,35.056 &#xD;&#xA;&#x9;&#x9;17.933,35.056 17.933,39.983 15.506,39.983 15.506,41.353 2.137,41.353 2.137,39.983 0,39.983 &#x9;"/>
</svg>