<svg version="1.2" baseProfile="tiny" viewBox="0 0 119.618 195.273" xmlns:xlink="http://www.w3.org/1999/xlink" xmlns="http://www.w3.org/2000/svg">
<path style="fill:#ffffff;" d="M59.81,195.273c-16.121,0-29.436-1.433-39.576-4.258c-1.582-0.397-3.101-0.876-4.529-1.428   C1.583,184.532,0.108,177.861,0,177.236L0,10.33l0.227-0.88c0.868-3.376,4.13-5.592,6.713-6.857l0.115-0.061   c1.238-0.706,2.616-1.223,4.112-1.547l0.122-0.03C13.486,0.337,15.757,0,17.701,0h84.216c6.297,0,15.873,3.286,17.475,9.456   l0.226,0.87v166.922c-0.08,0.473-1.013,4.812-8.552,9.117C103.949,190.429,89.28,195.273,59.81,195.273z"/>
</svg>