<svg version="1.2" baseProfile="tiny" viewBox="0 0 69.803 126.545" xmlns:xlink="http://www.w3.org/1999/xlink" xmlns="http://www.w3.org/2000/svg">
<path style="fill:#ffffff;" d="M69.803,96.6146L69.803,125.0809L50.1702,125.0809L50.1702,125.0809L50.1702,121.3971L19.0227,121.3971L19.0227,121.3971L19.0227,125.0809L0.0,125.0809L0.0,125.0809L0.0,96.6146L4.1749,96.6146L4.1749,96.0831C4.1749,95.5465,4.6147,95.1074,5.1522,95.1074C4.6147,95.1074,4.1749,94.6683,4.1749,94.1305L4.1749,87.6324C4.1749,87.0946,4.6147,86.6555,5.1522,86.6555L5.9619,86.6555L5.9619,83.0831L15.8411,83.0831L15.8411,86.6555L17.286,86.6555L20.0,80.8736L20.0,72.7583L49.8072,72.7583L49.8072,80.8736L52.5198,86.6568L53.971,86.6568L53.971,83.0844L63.8509,83.0844L63.8509,86.6568L64.6557,86.6568C65.1932,86.6568,65.6323,87.0946,65.6323,87.6337L65.6323,94.1305C65.6323,94.6683,65.1932,95.1074,64.6557,95.1074C65.1932,95.1074,65.6323,95.5465,65.6323,96.0844L65.6323,96.6158L69.803,96.6158L69.803,96.6158M42.7739,2.9713L38.6723,2.9713L38.6723,1.4641L31.1363,1.4641L31.1363,2.97L27.034,2.97L27.034,8.5734L42.7739,8.5734L42.7739,2.9713Z"/>
</svg>